<svg xmlns="http://www.w3.org/2000/svg" viewBox="0 0 500 500"><defs><style>.cls-1{fill:#f7aca6;}.cls-2{fill:#f7ecbf;}.cls-3{fill:#fbf6e2;}.cls-4{fill:#8f7967;}</style></defs><title>vaca</title><g id="BACKGROUND1"><circle class="cls-1" cx="283.88" cy="380.52" r="33.17" transform="translate(-3.59 2.7) rotate(-0.54)"/><rect class="cls-2" x="110.66" y="338" width="32.53" height="143.5" transform="translate(-3.87 1.22) rotate(-0.54)"/><rect class="cls-2" x="331.65" y="335.91" width="32.53" height="143.5" transform="translate(-3.84 3.31) rotate(-0.54)"/><path class="cls-3" d="M109.51,193.2H412a6.2,6.2,0,0,1,6.2,6.2V380.71a0,0,0,0,1,0,0H115.66a6.15,6.15,0,0,1-6.15-6.15V193.2a0,0,0,0,1,0,0Z" transform="translate(-2.7 2.51) rotate(-0.54)"/><rect class="cls-3" x="165.83" y="337.48" width="32.53" height="143.5" transform="translate(-3.86 1.74) rotate(-0.54)"/><rect class="cls-3" x="386.82" y="335.39" width="32.53" height="143.5" transform="translate(-3.83 3.83) rotate(-0.54)"/><path class="cls-4" d="M165,185.2l0-2a19.72,19.72,0,0,0-19.9-19.53l-73.53.7A19.72,19.72,0,0,0,52,184.3l0,2-39.5.37s8.2,33.1,39.6,10.38l.73,77A45.72,45.72,0,0,0,99,319.33l21.52-.2A45.72,45.72,0,0,0,165.86,273l-.73-77c31.83,22.12,39.4-11.13,39.4-11.13Z"/><path class="cls-4" d="M381.91,192.08l-92.5.87c5.09,9.18,11.88,17.33,18.67,25.35,8,9.49,16.32,19.19,27.2,25.2,17.27,9.53,38.44,8.35,57.74,4.27,8.62-1.82,17.27-4.27,24.73-8.92l-.11-11.72A35.4,35.4,0,0,0,381.91,192.08Z"/><path class="cls-4" d="M272.33,257.39c5.17,7.67,9.86,15.77,12.63,24.59s3.51,18.47.79,27.31c-4.73,15.39-20,26.38-36,27.9s-32.2-5.64-43.41-17.2-17.72-27.11-20.25-43c-1.74-10.95-1.67-22.35,1.67-32.92s10.13-20.28,19.73-25.83C232.36,203.83,260.25,239.47,272.33,257.39Z"/><path class="cls-3" d="M52,184.3l0,2-39.5.37s8.2,33.1,39.6,10.38l.49,51.92c13.25-1.42,26-7.12,34.94-16.93a60.51,60.51,0,0,0,11.28-18.46,74.89,74.89,0,0,0,5.06-32.61,67.7,67.7,0,0,0-3-16.82l-29.35.28A19.72,19.72,0,0,0,52,184.3Z"/></g></svg>